# xmcd
#
# Track frame offsets: 
#        150
#        14625
#        32637
#        51247
#        65865
#        81145
#        98575
#        116497
#        128440
#        143587
#
# Disc length: 2055 seconds
#
# Revision: 3
# Processed by: cddbd v1.5.1PL2 Copyright (c) Steve Scherf et al.
# Submitted via: ExactAudioCopy v0.90b4
#
DISCID=8008050a
DTITLE=Delbert McClinton - I'm With You
DYEAR=1990
DGENRE=Blues
TTITLE0=That's the Way I Feel
TTITLE1=My Baby's Lovin'
TTITLE2=Go On
TTITLE3=Got You on My Mind
TTITLE4=Crazy 'Bout You
TTITLE5=I'm With You
TTITLE6=I Want to Love You
TTITLE7=Who's Foolin' Who
TTITLE8=The Real Thing
TTITLE9=My Love Is Burnin'
EXTD=
EXTT0=
EXTT1=
EXTT2=
EXTT3=
EXTT4=
EXTT5=
EXTT6=
EXTT7=
EXTT8=
EXTT9=
PLAYORDER=
